<mxfile host="app.diagrams.net" modified="2020-11-05T04:56:09.467Z" agent="5.0 (Macintosh; Intel Mac OS X 10_15_6) AppleWebKit/537.36 (KHTML, like Gecko) Chrome/85.0.4183.121 Safari/537.36" etag="ZaoNulDBPmiXbYqQQI6W" version="13.7.8" type="github">
  <diagram name="Page-1" id="c7488fd3-1785-93aa-aadb-54a6760d102a">
    <mxGraphModel dx="1185" dy="692" grid="1" gridSize="10" guides="1" tooltips="1" connect="1" arrows="1" fold="1" page="1" pageScale="1" pageWidth="1100" pageHeight="850" background="#ffffff" math="0" shadow="0">
      <root>
        <mxCell id="0" />
        <mxCell id="1" parent="0" />
        <mxCell id="2b4e8129b02d487f-1" value="Crear Suscripcion" style="swimlane;html=1;childLayout=stackLayout;horizontal=1;startSize=20;horizontalStack=0;rounded=0;shadow=0;labelBackgroundColor=none;strokeWidth=1;fontFamily=Verdana;fontSize=8;align=center;" parent="1" vertex="1">
          <mxGeometry x="40" y="70" width="880" height="470" as="geometry" />
        </mxCell>
        <mxCell id="2b4e8129b02d487f-2" value="Magento" style="swimlane;html=1;startSize=20;horizontal=0;" parent="2b4e8129b02d487f-1" vertex="1">
          <mxGeometry y="20" width="880" height="150" as="geometry" />
        </mxCell>
        <mxCell id="4bEdVWZg1Sl4BrF8SQjz-33" style="edgeStyle=orthogonalEdgeStyle;rounded=0;orthogonalLoop=1;jettySize=auto;html=1;exitX=1;exitY=0.5;exitDx=0;exitDy=0;entryX=0;entryY=0.5;entryDx=0;entryDy=0;" edge="1" parent="2b4e8129b02d487f-2" source="4bEdVWZg1Sl4BrF8SQjz-31" target="4bEdVWZg1Sl4BrF8SQjz-24">
          <mxGeometry relative="1" as="geometry" />
        </mxCell>
        <mxCell id="4bEdVWZg1Sl4BrF8SQjz-55" value="Fin" style="ellipse;whiteSpace=wrap;html=1;aspect=fixed;" vertex="1" parent="2b4e8129b02d487f-2">
          <mxGeometry x="830" y="53.5" width="40" height="40" as="geometry" />
        </mxCell>
        <mxCell id="4bEdVWZg1Sl4BrF8SQjz-48" value="Hacer algo con la respuesta" style="rounded=1;whiteSpace=wrap;html=1;shadow=0;labelBackgroundColor=none;strokeWidth=1;fontFamily=Verdana;fontSize=8;align=center;" vertex="1" parent="2b4e8129b02d487f-2">
          <mxGeometry x="710" y="43.25" width="70" height="63.5" as="geometry" />
        </mxCell>
        <mxCell id="4bEdVWZg1Sl4BrF8SQjz-31" value="Obtener lista de suscripciones.&lt;br&gt;Evento Agregar" style="rounded=1;whiteSpace=wrap;html=1;shadow=0;labelBackgroundColor=none;strokeWidth=1;fontFamily=Verdana;fontSize=8;align=center;" vertex="1" parent="2b4e8129b02d487f-2">
          <mxGeometry x="260" y="56.5" width="70" height="37" as="geometry" />
        </mxCell>
        <mxCell id="2b4e8129b02d487f-6" value="Ingresar a la web.&lt;br&gt;1.- Ubicarse en suscripciones" style="rounded=1;whiteSpace=wrap;html=1;shadow=0;labelBackgroundColor=none;strokeWidth=1;fontFamily=Verdana;fontSize=8;align=center;" parent="2b4e8129b02d487f-2" vertex="1">
          <mxGeometry x="30" y="56.49999999999997" width="70" height="37" as="geometry" />
        </mxCell>
        <mxCell id="4bEdVWZg1Sl4BrF8SQjz-57" style="edgeStyle=orthogonalEdgeStyle;rounded=0;orthogonalLoop=1;jettySize=auto;html=1;entryX=0;entryY=0.5;entryDx=0;entryDy=0;" edge="1" parent="2b4e8129b02d487f-2" source="4bEdVWZg1Sl4BrF8SQjz-48" target="4bEdVWZg1Sl4BrF8SQjz-55">
          <mxGeometry relative="1" as="geometry">
            <mxPoint x="810" y="75" as="targetPoint" />
          </mxGeometry>
        </mxCell>
        <mxCell id="4bEdVWZg1Sl4BrF8SQjz-24" value="1.- Llenar campos en formulario.&lt;br&gt;2.- Seleccionar lista de productos&lt;br&gt;3.- Enviar Formulario" style="rounded=1;whiteSpace=wrap;html=1;shadow=0;labelBackgroundColor=none;strokeWidth=1;fontFamily=Verdana;fontSize=8;align=center;" vertex="1" parent="2b4e8129b02d487f-2">
          <mxGeometry x="370" y="36.63" width="70" height="76.75" as="geometry" />
        </mxCell>
        <mxCell id="2b4e8129b02d487f-3" value="App" style="swimlane;html=1;startSize=20;horizontal=0;" parent="2b4e8129b02d487f-1" vertex="1">
          <mxGeometry y="170" width="880" height="150" as="geometry" />
        </mxCell>
        <mxCell id="4bEdVWZg1Sl4BrF8SQjz-159" value="1.- Llenar campos en formulario.&lt;br&gt;2.- Seleccionar lista de productos&lt;br&gt;3.- Enviar Formulario" style="rounded=1;whiteSpace=wrap;html=1;shadow=0;labelBackgroundColor=none;strokeWidth=1;fontFamily=Verdana;fontSize=8;align=center;" vertex="1" parent="2b4e8129b02d487f-3">
          <mxGeometry x="370" y="50.129999999999995" width="70" height="76.75" as="geometry" />
        </mxCell>
        <mxCell id="4bEdVWZg1Sl4BrF8SQjz-59" value="Fin" style="ellipse;whiteSpace=wrap;html=1;aspect=fixed;" vertex="1" parent="2b4e8129b02d487f-3">
          <mxGeometry x="830" y="67" width="40" height="40" as="geometry" />
        </mxCell>
        <mxCell id="4bEdVWZg1Sl4BrF8SQjz-60" style="edgeStyle=orthogonalEdgeStyle;rounded=0;orthogonalLoop=1;jettySize=auto;html=1;entryX=0;entryY=0.5;entryDx=0;entryDy=0;" edge="1" parent="2b4e8129b02d487f-3" source="4bEdVWZg1Sl4BrF8SQjz-50" target="4bEdVWZg1Sl4BrF8SQjz-59">
          <mxGeometry relative="1" as="geometry" />
        </mxCell>
        <mxCell id="4bEdVWZg1Sl4BrF8SQjz-50" value="Hacer algo con la respuesta" style="rounded=1;whiteSpace=wrap;html=1;shadow=0;labelBackgroundColor=none;strokeWidth=1;fontFamily=Verdana;fontSize=8;align=center;" vertex="1" parent="2b4e8129b02d487f-3">
          <mxGeometry x="710" y="56.75" width="70" height="63.5" as="geometry" />
        </mxCell>
        <mxCell id="4bEdVWZg1Sl4BrF8SQjz-2" value="Ingresar a la App.&lt;br&gt;1.- Ubicarse en suscripciones" style="rounded=1;whiteSpace=wrap;html=1;shadow=0;labelBackgroundColor=none;strokeWidth=1;fontFamily=Verdana;fontSize=8;align=center;" vertex="1" parent="2b4e8129b02d487f-3">
          <mxGeometry x="30" y="70" width="70" height="37" as="geometry" />
        </mxCell>
        <mxCell id="4bEdVWZg1Sl4BrF8SQjz-36" style="edgeStyle=orthogonalEdgeStyle;rounded=0;orthogonalLoop=1;jettySize=auto;html=1;entryX=0;entryY=0.5;entryDx=0;entryDy=0;" edge="1" parent="2b4e8129b02d487f-3" source="4bEdVWZg1Sl4BrF8SQjz-27">
          <mxGeometry relative="1" as="geometry">
            <mxPoint x="370" y="88.5" as="targetPoint" />
          </mxGeometry>
        </mxCell>
        <mxCell id="4bEdVWZg1Sl4BrF8SQjz-27" value="Obtener lista de suscripciones.&lt;br&gt;Evento Agregar" style="rounded=1;whiteSpace=wrap;html=1;shadow=0;labelBackgroundColor=none;strokeWidth=1;fontFamily=Verdana;fontSize=8;align=center;" vertex="1" parent="2b4e8129b02d487f-3">
          <mxGeometry x="260" y="70" width="70" height="37" as="geometry" />
        </mxCell>
        <mxCell id="2b4e8129b02d487f-4" value="Suscripciones" style="swimlane;html=1;startSize=20;horizontal=0;" parent="2b4e8129b02d487f-1" vertex="1">
          <mxGeometry y="320" width="880" height="150" as="geometry" />
        </mxCell>
        <mxCell id="4bEdVWZg1Sl4BrF8SQjz-44" style="edgeStyle=orthogonalEdgeStyle;rounded=0;orthogonalLoop=1;jettySize=auto;html=1;exitX=1;exitY=0.5;exitDx=0;exitDy=0;entryX=0;entryY=0.5;entryDx=0;entryDy=0;" edge="1" parent="2b4e8129b02d487f-4" source="4bEdVWZg1Sl4BrF8SQjz-39" target="4bEdVWZg1Sl4BrF8SQjz-43">
          <mxGeometry relative="1" as="geometry" />
        </mxCell>
        <mxCell id="4bEdVWZg1Sl4BrF8SQjz-39" value="&lt;font style=&quot;font-size: 6px&quot;&gt;Servicio POST /subscripcion&lt;br&gt;params Object&lt;br&gt;header: Bearer&lt;br&gt;&lt;/font&gt;" style="rounded=1;whiteSpace=wrap;html=1;shadow=0;labelBackgroundColor=none;strokeWidth=1;fontFamily=Verdana;fontSize=8;align=center;" vertex="1" parent="2b4e8129b02d487f-4">
          <mxGeometry x="480" y="50.25" width="70" height="49.5" as="geometry" />
        </mxCell>
        <mxCell id="4bEdVWZg1Sl4BrF8SQjz-43" value="&lt;font style=&quot;font-size: 6px&quot;&gt;Validar y agregar sku suscribible&lt;br&gt;&lt;/font&gt;" style="rounded=1;whiteSpace=wrap;html=1;shadow=0;labelBackgroundColor=none;strokeWidth=1;fontFamily=Verdana;fontSize=8;align=center;" vertex="1" parent="2b4e8129b02d487f-4">
          <mxGeometry x="590" y="50.25" width="70" height="49.5" as="geometry" />
        </mxCell>
        <mxCell id="2b4e8129b02d487f-14" value="&lt;font style=&quot;font-size: 6px&quot;&gt;Servicio Get /subscripcion&lt;br&gt;params {client_id: number}&lt;br&gt;header: Bearer&lt;br&gt;&lt;/font&gt;" style="rounded=1;whiteSpace=wrap;html=1;shadow=0;labelBackgroundColor=none;strokeWidth=1;fontFamily=Verdana;fontSize=8;align=center;" parent="2b4e8129b02d487f-4" vertex="1">
          <mxGeometry x="140" y="60.5" width="70" height="49.5" as="geometry" />
        </mxCell>
        <mxCell id="4bEdVWZg1Sl4BrF8SQjz-28" style="edgeStyle=orthogonalEdgeStyle;rounded=0;orthogonalLoop=1;jettySize=auto;html=1;entryX=0;entryY=0.75;entryDx=0;entryDy=0;" edge="1" parent="2b4e8129b02d487f-1" source="4bEdVWZg1Sl4BrF8SQjz-2" target="2b4e8129b02d487f-14">
          <mxGeometry relative="1" as="geometry" />
        </mxCell>
        <mxCell id="4bEdVWZg1Sl4BrF8SQjz-29" style="edgeStyle=orthogonalEdgeStyle;rounded=0;orthogonalLoop=1;jettySize=auto;html=1;entryX=0;entryY=0.25;entryDx=0;entryDy=0;" edge="1" parent="2b4e8129b02d487f-1" source="2b4e8129b02d487f-6" target="2b4e8129b02d487f-14">
          <mxGeometry relative="1" as="geometry" />
        </mxCell>
        <mxCell id="4bEdVWZg1Sl4BrF8SQjz-30" style="edgeStyle=orthogonalEdgeStyle;rounded=0;orthogonalLoop=1;jettySize=auto;html=1;exitX=1;exitY=0.75;exitDx=0;exitDy=0;entryX=0;entryY=0.5;entryDx=0;entryDy=0;" edge="1" parent="2b4e8129b02d487f-1" source="2b4e8129b02d487f-14" target="4bEdVWZg1Sl4BrF8SQjz-27">
          <mxGeometry relative="1" as="geometry" />
        </mxCell>
        <mxCell id="4bEdVWZg1Sl4BrF8SQjz-32" style="edgeStyle=orthogonalEdgeStyle;rounded=0;orthogonalLoop=1;jettySize=auto;html=1;exitX=1;exitY=0.25;exitDx=0;exitDy=0;entryX=0;entryY=0.5;entryDx=0;entryDy=0;" edge="1" parent="2b4e8129b02d487f-1" source="2b4e8129b02d487f-14" target="4bEdVWZg1Sl4BrF8SQjz-31">
          <mxGeometry relative="1" as="geometry" />
        </mxCell>
        <mxCell id="4bEdVWZg1Sl4BrF8SQjz-45" style="edgeStyle=orthogonalEdgeStyle;rounded=0;orthogonalLoop=1;jettySize=auto;html=1;entryX=0;entryY=0.75;entryDx=0;entryDy=0;" edge="1" parent="2b4e8129b02d487f-1" target="4bEdVWZg1Sl4BrF8SQjz-39">
          <mxGeometry relative="1" as="geometry">
            <mxPoint x="440" y="258.51724137931035" as="sourcePoint" />
            <Array as="points">
              <mxPoint x="460" y="259" />
              <mxPoint x="460" y="407" />
            </Array>
          </mxGeometry>
        </mxCell>
        <mxCell id="4bEdVWZg1Sl4BrF8SQjz-46" style="edgeStyle=orthogonalEdgeStyle;rounded=0;orthogonalLoop=1;jettySize=auto;html=1;exitX=1;exitY=0.5;exitDx=0;exitDy=0;entryX=0;entryY=0.25;entryDx=0;entryDy=0;" edge="1" parent="2b4e8129b02d487f-1" source="4bEdVWZg1Sl4BrF8SQjz-24" target="4bEdVWZg1Sl4BrF8SQjz-39">
          <mxGeometry relative="1" as="geometry">
            <Array as="points">
              <mxPoint x="460" y="95" />
              <mxPoint x="460" y="383" />
            </Array>
          </mxGeometry>
        </mxCell>
        <mxCell id="4bEdVWZg1Sl4BrF8SQjz-49" style="edgeStyle=orthogonalEdgeStyle;rounded=0;orthogonalLoop=1;jettySize=auto;html=1;exitX=1;exitY=0.25;exitDx=0;exitDy=0;" edge="1" parent="2b4e8129b02d487f-1" source="4bEdVWZg1Sl4BrF8SQjz-43">
          <mxGeometry relative="1" as="geometry">
            <mxPoint x="710" y="95" as="targetPoint" />
            <Array as="points">
              <mxPoint x="680" y="383" />
              <mxPoint x="680" y="95" />
              <mxPoint x="710" y="95" />
            </Array>
          </mxGeometry>
        </mxCell>
        <mxCell id="4bEdVWZg1Sl4BrF8SQjz-51" style="edgeStyle=orthogonalEdgeStyle;rounded=0;orthogonalLoop=1;jettySize=auto;html=1;exitX=1;exitY=0.75;exitDx=0;exitDy=0;entryX=0;entryY=0.5;entryDx=0;entryDy=0;" edge="1" parent="2b4e8129b02d487f-1" source="4bEdVWZg1Sl4BrF8SQjz-43" target="4bEdVWZg1Sl4BrF8SQjz-50">
          <mxGeometry relative="1" as="geometry">
            <Array as="points">
              <mxPoint x="680" y="407" />
              <mxPoint x="680" y="259" />
            </Array>
          </mxGeometry>
        </mxCell>
        <mxCell id="4bEdVWZg1Sl4BrF8SQjz-92" value="Actualizar Suscripcion" style="swimlane;html=1;childLayout=stackLayout;horizontal=1;startSize=20;horizontalStack=0;rounded=0;shadow=0;labelBackgroundColor=none;strokeWidth=1;fontFamily=Verdana;fontSize=8;align=center;" vertex="1" parent="1">
          <mxGeometry x="40" y="730" width="880" height="470" as="geometry" />
        </mxCell>
        <mxCell id="4bEdVWZg1Sl4BrF8SQjz-93" value="Magento" style="swimlane;html=1;startSize=20;horizontal=0;" vertex="1" parent="4bEdVWZg1Sl4BrF8SQjz-92">
          <mxGeometry y="20" width="880" height="150" as="geometry" />
        </mxCell>
        <mxCell id="4bEdVWZg1Sl4BrF8SQjz-96" value="Hacer algo con la respuesta" style="rounded=1;whiteSpace=wrap;html=1;shadow=0;labelBackgroundColor=none;strokeWidth=1;fontFamily=Verdana;fontSize=8;align=center;" vertex="1" parent="4bEdVWZg1Sl4BrF8SQjz-93">
          <mxGeometry x="690" y="31.5" width="70" height="63.5" as="geometry" />
        </mxCell>
        <mxCell id="4bEdVWZg1Sl4BrF8SQjz-124" value="Formulario llenado con la informacion obtenida del servicio" style="rounded=1;whiteSpace=wrap;html=1;shadow=0;labelBackgroundColor=none;strokeWidth=1;fontFamily=Verdana;fontSize=8;align=center;" vertex="1" parent="4bEdVWZg1Sl4BrF8SQjz-93">
          <mxGeometry x="470" y="30" width="70" height="63.5" as="geometry" />
        </mxCell>
        <mxCell id="4bEdVWZg1Sl4BrF8SQjz-95" value="Fin" style="ellipse;whiteSpace=wrap;html=1;aspect=fixed;" vertex="1" parent="4bEdVWZg1Sl4BrF8SQjz-93">
          <mxGeometry x="810" y="43.25" width="40" height="40" as="geometry" />
        </mxCell>
        <mxCell id="4bEdVWZg1Sl4BrF8SQjz-277" value="Obtener lista de suscripciones.&lt;br&gt;Seleccionar existente&lt;br&gt;Evento Editar" style="rounded=1;whiteSpace=wrap;html=1;shadow=0;labelBackgroundColor=none;strokeWidth=1;fontFamily=Verdana;fontSize=8;align=center;" vertex="1" parent="4bEdVWZg1Sl4BrF8SQjz-93">
          <mxGeometry x="250" y="48.25" width="70" height="46.75" as="geometry" />
        </mxCell>
        <mxCell id="4bEdVWZg1Sl4BrF8SQjz-98" value="Ingresar a la web.&lt;br&gt;1.- Ubicarse en suscripciones" style="rounded=1;whiteSpace=wrap;html=1;shadow=0;labelBackgroundColor=none;strokeWidth=1;fontFamily=Verdana;fontSize=8;align=center;" vertex="1" parent="4bEdVWZg1Sl4BrF8SQjz-93">
          <mxGeometry x="30" y="56.49999999999997" width="70" height="37" as="geometry" />
        </mxCell>
        <mxCell id="4bEdVWZg1Sl4BrF8SQjz-100" style="edgeStyle=orthogonalEdgeStyle;rounded=0;orthogonalLoop=1;jettySize=auto;html=1;entryX=0;entryY=0.5;entryDx=0;entryDy=0;" edge="1" parent="4bEdVWZg1Sl4BrF8SQjz-93" source="4bEdVWZg1Sl4BrF8SQjz-96" target="4bEdVWZg1Sl4BrF8SQjz-95">
          <mxGeometry relative="1" as="geometry">
            <mxPoint x="810" y="75" as="targetPoint" />
          </mxGeometry>
        </mxCell>
        <mxCell id="4bEdVWZg1Sl4BrF8SQjz-101" value="App" style="swimlane;html=1;startSize=20;horizontal=0;" vertex="1" parent="4bEdVWZg1Sl4BrF8SQjz-92">
          <mxGeometry y="170" width="880" height="150" as="geometry" />
        </mxCell>
        <mxCell id="4bEdVWZg1Sl4BrF8SQjz-102" value="Fin" style="ellipse;whiteSpace=wrap;html=1;aspect=fixed;" vertex="1" parent="4bEdVWZg1Sl4BrF8SQjz-101">
          <mxGeometry x="810" y="55.25" width="40" height="40" as="geometry" />
        </mxCell>
        <mxCell id="4bEdVWZg1Sl4BrF8SQjz-104" value="Hacer algo con la respuesta" style="rounded=1;whiteSpace=wrap;html=1;shadow=0;labelBackgroundColor=none;strokeWidth=1;fontFamily=Verdana;fontSize=8;align=center;" vertex="1" parent="4bEdVWZg1Sl4BrF8SQjz-101">
          <mxGeometry x="690" y="43.5" width="70" height="63.5" as="geometry" />
        </mxCell>
        <mxCell id="4bEdVWZg1Sl4BrF8SQjz-125" value="&lt;span&gt;Formulario llenado con la informacion obtenida del servicio&lt;/span&gt;" style="rounded=1;whiteSpace=wrap;html=1;shadow=0;labelBackgroundColor=none;strokeWidth=1;fontFamily=Verdana;fontSize=8;align=center;" vertex="1" parent="4bEdVWZg1Sl4BrF8SQjz-101">
          <mxGeometry x="470" y="43.25" width="70" height="63.5" as="geometry" />
        </mxCell>
        <mxCell id="4bEdVWZg1Sl4BrF8SQjz-103" style="edgeStyle=orthogonalEdgeStyle;rounded=0;orthogonalLoop=1;jettySize=auto;html=1;entryX=0;entryY=0.5;entryDx=0;entryDy=0;" edge="1" parent="4bEdVWZg1Sl4BrF8SQjz-101" source="4bEdVWZg1Sl4BrF8SQjz-104" target="4bEdVWZg1Sl4BrF8SQjz-102">
          <mxGeometry relative="1" as="geometry" />
        </mxCell>
        <mxCell id="4bEdVWZg1Sl4BrF8SQjz-106" value="Ingresar a la App.&lt;br&gt;1.- Ubicarse en suscripciones" style="rounded=1;whiteSpace=wrap;html=1;shadow=0;labelBackgroundColor=none;strokeWidth=1;fontFamily=Verdana;fontSize=8;align=center;" vertex="1" parent="4bEdVWZg1Sl4BrF8SQjz-101">
          <mxGeometry x="30" y="70" width="70" height="37" as="geometry" />
        </mxCell>
        <mxCell id="4bEdVWZg1Sl4BrF8SQjz-108" value="Obtener lista de suscripciones.&lt;br&gt;Seleccionar existente&lt;br&gt;Evento Editar" style="rounded=1;whiteSpace=wrap;html=1;shadow=0;labelBackgroundColor=none;strokeWidth=1;fontFamily=Verdana;fontSize=8;align=center;" vertex="1" parent="4bEdVWZg1Sl4BrF8SQjz-101">
          <mxGeometry x="250" y="60" width="70" height="46.75" as="geometry" />
        </mxCell>
        <mxCell id="4bEdVWZg1Sl4BrF8SQjz-109" value="Suscripciones" style="swimlane;html=1;startSize=20;horizontal=0;" vertex="1" parent="4bEdVWZg1Sl4BrF8SQjz-92">
          <mxGeometry y="320" width="880" height="150" as="geometry" />
        </mxCell>
        <mxCell id="4bEdVWZg1Sl4BrF8SQjz-113" value="&lt;font style=&quot;font-size: 6px&quot;&gt;Servicio GET /subscripcion&lt;br&gt;params {client_id: number}&lt;br&gt;header: Bearer&lt;br&gt;&lt;/font&gt;" style="rounded=1;whiteSpace=wrap;html=1;shadow=0;labelBackgroundColor=none;strokeWidth=1;fontFamily=Verdana;fontSize=8;align=center;" vertex="1" parent="4bEdVWZg1Sl4BrF8SQjz-109">
          <mxGeometry x="140" y="60.5" width="70" height="49.5" as="geometry" />
        </mxCell>
        <mxCell id="4bEdVWZg1Sl4BrF8SQjz-122" value="&lt;font style=&quot;font-size: 6px&quot;&gt;Servicio GET /subscripcion/:id&lt;br&gt;params subscription_id&lt;br&gt;header: Bearer&lt;br&gt;&lt;/font&gt;" style="rounded=1;whiteSpace=wrap;html=1;shadow=0;labelBackgroundColor=none;strokeWidth=1;fontFamily=Verdana;fontSize=8;align=center;" vertex="1" parent="4bEdVWZg1Sl4BrF8SQjz-109">
          <mxGeometry x="360" y="60.5" width="70" height="49.5" as="geometry" />
        </mxCell>
        <mxCell id="4bEdVWZg1Sl4BrF8SQjz-111" value="&lt;font style=&quot;font-size: 6px&quot;&gt;Servicio PUT /update/:id&lt;br&gt;params Object&lt;br&gt;header: Bearer&lt;br&gt;&lt;/font&gt;" style="rounded=1;whiteSpace=wrap;html=1;shadow=0;labelBackgroundColor=none;strokeWidth=1;fontFamily=Verdana;fontSize=8;align=center;" vertex="1" parent="4bEdVWZg1Sl4BrF8SQjz-109">
          <mxGeometry x="580" y="60.5" width="70" height="49.5" as="geometry" />
        </mxCell>
        <mxCell id="4bEdVWZg1Sl4BrF8SQjz-114" style="edgeStyle=orthogonalEdgeStyle;rounded=0;orthogonalLoop=1;jettySize=auto;html=1;entryX=0;entryY=0.75;entryDx=0;entryDy=0;" edge="1" parent="4bEdVWZg1Sl4BrF8SQjz-92" source="4bEdVWZg1Sl4BrF8SQjz-106" target="4bEdVWZg1Sl4BrF8SQjz-113">
          <mxGeometry relative="1" as="geometry" />
        </mxCell>
        <mxCell id="4bEdVWZg1Sl4BrF8SQjz-115" style="edgeStyle=orthogonalEdgeStyle;rounded=0;orthogonalLoop=1;jettySize=auto;html=1;entryX=0;entryY=0.25;entryDx=0;entryDy=0;" edge="1" parent="4bEdVWZg1Sl4BrF8SQjz-92" source="4bEdVWZg1Sl4BrF8SQjz-98" target="4bEdVWZg1Sl4BrF8SQjz-113">
          <mxGeometry relative="1" as="geometry" />
        </mxCell>
        <mxCell id="4bEdVWZg1Sl4BrF8SQjz-116" style="edgeStyle=orthogonalEdgeStyle;rounded=0;orthogonalLoop=1;jettySize=auto;html=1;exitX=1;exitY=0.75;exitDx=0;exitDy=0;entryX=0;entryY=0.5;entryDx=0;entryDy=0;" edge="1" parent="4bEdVWZg1Sl4BrF8SQjz-92" source="4bEdVWZg1Sl4BrF8SQjz-113" target="4bEdVWZg1Sl4BrF8SQjz-108">
          <mxGeometry relative="1" as="geometry" />
        </mxCell>
        <mxCell id="4bEdVWZg1Sl4BrF8SQjz-117" style="edgeStyle=orthogonalEdgeStyle;rounded=0;orthogonalLoop=1;jettySize=auto;html=1;exitX=1;exitY=0.25;exitDx=0;exitDy=0;entryX=0;entryY=0.5;entryDx=0;entryDy=0;" edge="1" parent="4bEdVWZg1Sl4BrF8SQjz-92" source="4bEdVWZg1Sl4BrF8SQjz-113" target="4bEdVWZg1Sl4BrF8SQjz-277">
          <mxGeometry relative="1" as="geometry">
            <mxPoint x="210" y="100" as="targetPoint" />
          </mxGeometry>
        </mxCell>
        <mxCell id="4bEdVWZg1Sl4BrF8SQjz-107" style="edgeStyle=orthogonalEdgeStyle;rounded=0;orthogonalLoop=1;jettySize=auto;html=1;entryX=0;entryY=0.75;entryDx=0;entryDy=0;" edge="1" parent="4bEdVWZg1Sl4BrF8SQjz-92" source="4bEdVWZg1Sl4BrF8SQjz-108" target="4bEdVWZg1Sl4BrF8SQjz-122">
          <mxGeometry relative="1" as="geometry">
            <mxPoint x="370" y="258.5" as="targetPoint" />
            <Array as="points">
              <mxPoint x="340" y="259" />
              <mxPoint x="340" y="418" />
            </Array>
          </mxGeometry>
        </mxCell>
        <mxCell id="4bEdVWZg1Sl4BrF8SQjz-126" style="edgeStyle=orthogonalEdgeStyle;rounded=0;orthogonalLoop=1;jettySize=auto;html=1;exitX=1;exitY=0.25;exitDx=0;exitDy=0;entryX=0;entryY=0.5;entryDx=0;entryDy=0;" edge="1" parent="4bEdVWZg1Sl4BrF8SQjz-92" source="4bEdVWZg1Sl4BrF8SQjz-122" target="4bEdVWZg1Sl4BrF8SQjz-124">
          <mxGeometry relative="1" as="geometry" />
        </mxCell>
        <mxCell id="4bEdVWZg1Sl4BrF8SQjz-127" style="edgeStyle=orthogonalEdgeStyle;rounded=0;orthogonalLoop=1;jettySize=auto;html=1;exitX=1;exitY=0.75;exitDx=0;exitDy=0;entryX=0;entryY=0.5;entryDx=0;entryDy=0;" edge="1" parent="4bEdVWZg1Sl4BrF8SQjz-92" source="4bEdVWZg1Sl4BrF8SQjz-122" target="4bEdVWZg1Sl4BrF8SQjz-125">
          <mxGeometry relative="1" as="geometry" />
        </mxCell>
        <mxCell id="4bEdVWZg1Sl4BrF8SQjz-160" style="edgeStyle=orthogonalEdgeStyle;rounded=0;orthogonalLoop=1;jettySize=auto;html=1;entryX=0;entryY=0.75;entryDx=0;entryDy=0;" edge="1" parent="4bEdVWZg1Sl4BrF8SQjz-92" source="4bEdVWZg1Sl4BrF8SQjz-125" target="4bEdVWZg1Sl4BrF8SQjz-111">
          <mxGeometry relative="1" as="geometry" />
        </mxCell>
        <mxCell id="4bEdVWZg1Sl4BrF8SQjz-161" style="edgeStyle=orthogonalEdgeStyle;rounded=0;orthogonalLoop=1;jettySize=auto;html=1;entryX=0;entryY=0.25;entryDx=0;entryDy=0;" edge="1" parent="4bEdVWZg1Sl4BrF8SQjz-92" source="4bEdVWZg1Sl4BrF8SQjz-124" target="4bEdVWZg1Sl4BrF8SQjz-111">
          <mxGeometry relative="1" as="geometry" />
        </mxCell>
        <mxCell id="4bEdVWZg1Sl4BrF8SQjz-162" style="edgeStyle=orthogonalEdgeStyle;rounded=0;orthogonalLoop=1;jettySize=auto;html=1;exitX=1;exitY=0.25;exitDx=0;exitDy=0;entryX=0;entryY=0.5;entryDx=0;entryDy=0;" edge="1" parent="4bEdVWZg1Sl4BrF8SQjz-92" source="4bEdVWZg1Sl4BrF8SQjz-111" target="4bEdVWZg1Sl4BrF8SQjz-96">
          <mxGeometry relative="1" as="geometry" />
        </mxCell>
        <mxCell id="4bEdVWZg1Sl4BrF8SQjz-163" style="edgeStyle=orthogonalEdgeStyle;rounded=0;orthogonalLoop=1;jettySize=auto;html=1;exitX=1;exitY=0.75;exitDx=0;exitDy=0;entryX=0;entryY=0.5;entryDx=0;entryDy=0;" edge="1" parent="4bEdVWZg1Sl4BrF8SQjz-92" source="4bEdVWZg1Sl4BrF8SQjz-111" target="4bEdVWZg1Sl4BrF8SQjz-104">
          <mxGeometry relative="1" as="geometry" />
        </mxCell>
        <mxCell id="4bEdVWZg1Sl4BrF8SQjz-278" style="edgeStyle=orthogonalEdgeStyle;rounded=0;orthogonalLoop=1;jettySize=auto;html=1;exitX=1;exitY=0.5;exitDx=0;exitDy=0;entryX=0;entryY=0.25;entryDx=0;entryDy=0;" edge="1" parent="4bEdVWZg1Sl4BrF8SQjz-92" source="4bEdVWZg1Sl4BrF8SQjz-277" target="4bEdVWZg1Sl4BrF8SQjz-122">
          <mxGeometry relative="1" as="geometry" />
        </mxCell>
        <mxCell id="4bEdVWZg1Sl4BrF8SQjz-164" value="Cancelar Suscripcion" style="swimlane;html=1;childLayout=stackLayout;horizontal=1;startSize=20;horizontalStack=0;rounded=0;shadow=0;labelBackgroundColor=none;strokeWidth=1;fontFamily=Verdana;fontSize=8;align=center;" vertex="1" parent="1">
          <mxGeometry x="40" y="1250" width="760" height="620" as="geometry" />
        </mxCell>
        <mxCell id="4bEdVWZg1Sl4BrF8SQjz-165" value="Magento" style="swimlane;html=1;startSize=20;horizontal=0;" vertex="1" parent="4bEdVWZg1Sl4BrF8SQjz-164">
          <mxGeometry y="20" width="760" height="150" as="geometry" />
        </mxCell>
        <mxCell id="4bEdVWZg1Sl4BrF8SQjz-166" value="Hacer algo con la respuesta" style="rounded=1;whiteSpace=wrap;html=1;shadow=0;labelBackgroundColor=none;strokeWidth=1;fontFamily=Verdana;fontSize=8;align=center;" vertex="1" parent="4bEdVWZg1Sl4BrF8SQjz-165">
          <mxGeometry x="590" y="31.5" width="70" height="63.5" as="geometry" />
        </mxCell>
        <mxCell id="4bEdVWZg1Sl4BrF8SQjz-168" value="Fin" style="ellipse;whiteSpace=wrap;html=1;aspect=fixed;" vertex="1" parent="4bEdVWZg1Sl4BrF8SQjz-165">
          <mxGeometry x="700" y="43.25" width="40" height="40" as="geometry" />
        </mxCell>
        <mxCell id="4bEdVWZg1Sl4BrF8SQjz-169" value="Ingresar a la web.&lt;br&gt;1.- Ubicarse en suscripciones" style="rounded=1;whiteSpace=wrap;html=1;shadow=0;labelBackgroundColor=none;strokeWidth=1;fontFamily=Verdana;fontSize=8;align=center;" vertex="1" parent="4bEdVWZg1Sl4BrF8SQjz-165">
          <mxGeometry x="30" y="56.49999999999997" width="70" height="37" as="geometry" />
        </mxCell>
        <mxCell id="4bEdVWZg1Sl4BrF8SQjz-170" style="edgeStyle=orthogonalEdgeStyle;rounded=0;orthogonalLoop=1;jettySize=auto;html=1;entryX=0;entryY=0.5;entryDx=0;entryDy=0;" edge="1" parent="4bEdVWZg1Sl4BrF8SQjz-165" source="4bEdVWZg1Sl4BrF8SQjz-166" target="4bEdVWZg1Sl4BrF8SQjz-168">
          <mxGeometry relative="1" as="geometry">
            <mxPoint x="810" y="75" as="targetPoint" />
          </mxGeometry>
        </mxCell>
        <mxCell id="4bEdVWZg1Sl4BrF8SQjz-171" value="Obtener lista de suscripciones.&lt;br&gt;Seleccionar existente&lt;br&gt;Evento Cancelar" style="rounded=1;whiteSpace=wrap;html=1;shadow=0;labelBackgroundColor=none;strokeWidth=1;fontFamily=Verdana;fontSize=8;align=center;" vertex="1" parent="4bEdVWZg1Sl4BrF8SQjz-165">
          <mxGeometry x="250" y="43.25" width="70" height="53.5" as="geometry" />
        </mxCell>
        <mxCell id="4bEdVWZg1Sl4BrF8SQjz-172" value="App" style="swimlane;html=1;startSize=20;horizontal=0;" vertex="1" parent="4bEdVWZg1Sl4BrF8SQjz-164">
          <mxGeometry y="170" width="760" height="150" as="geometry" />
        </mxCell>
        <mxCell id="4bEdVWZg1Sl4BrF8SQjz-174" value="Hacer algo con la respuesta" style="rounded=1;whiteSpace=wrap;html=1;shadow=0;labelBackgroundColor=none;strokeWidth=1;fontFamily=Verdana;fontSize=8;align=center;" vertex="1" parent="4bEdVWZg1Sl4BrF8SQjz-172">
          <mxGeometry x="590" y="43.5" width="70" height="63.5" as="geometry" />
        </mxCell>
        <mxCell id="4bEdVWZg1Sl4BrF8SQjz-176" style="edgeStyle=orthogonalEdgeStyle;rounded=0;orthogonalLoop=1;jettySize=auto;html=1;entryX=0;entryY=0.5;entryDx=0;entryDy=0;" edge="1" parent="4bEdVWZg1Sl4BrF8SQjz-172" source="4bEdVWZg1Sl4BrF8SQjz-174" target="4bEdVWZg1Sl4BrF8SQjz-173">
          <mxGeometry relative="1" as="geometry" />
        </mxCell>
        <mxCell id="4bEdVWZg1Sl4BrF8SQjz-173" value="Fin" style="ellipse;whiteSpace=wrap;html=1;aspect=fixed;" vertex="1" parent="4bEdVWZg1Sl4BrF8SQjz-172">
          <mxGeometry x="700" y="55" width="40" height="40" as="geometry" />
        </mxCell>
        <mxCell id="4bEdVWZg1Sl4BrF8SQjz-279" value="Obtener lista de suscripciones.&lt;br&gt;Seleccionar existente&lt;br&gt;Evento Cancelar" style="rounded=1;whiteSpace=wrap;html=1;shadow=0;labelBackgroundColor=none;strokeWidth=1;fontFamily=Verdana;fontSize=8;align=center;" vertex="1" parent="4bEdVWZg1Sl4BrF8SQjz-172">
          <mxGeometry x="250" y="61.75" width="70" height="53.5" as="geometry" />
        </mxCell>
        <mxCell id="4bEdVWZg1Sl4BrF8SQjz-177" value="Ingresar a la App.&lt;br&gt;1.- Ubicarse en suscripciones" style="rounded=1;whiteSpace=wrap;html=1;shadow=0;labelBackgroundColor=none;strokeWidth=1;fontFamily=Verdana;fontSize=8;align=center;" vertex="1" parent="4bEdVWZg1Sl4BrF8SQjz-172">
          <mxGeometry x="30" y="70" width="70" height="37" as="geometry" />
        </mxCell>
        <mxCell id="4bEdVWZg1Sl4BrF8SQjz-183" style="edgeStyle=orthogonalEdgeStyle;rounded=0;orthogonalLoop=1;jettySize=auto;html=1;entryX=0;entryY=0.75;entryDx=0;entryDy=0;" edge="1" parent="4bEdVWZg1Sl4BrF8SQjz-164" source="4bEdVWZg1Sl4BrF8SQjz-177" target="4bEdVWZg1Sl4BrF8SQjz-180">
          <mxGeometry relative="1" as="geometry" />
        </mxCell>
        <mxCell id="4bEdVWZg1Sl4BrF8SQjz-184" style="edgeStyle=orthogonalEdgeStyle;rounded=0;orthogonalLoop=1;jettySize=auto;html=1;entryX=0;entryY=0.25;entryDx=0;entryDy=0;" edge="1" parent="4bEdVWZg1Sl4BrF8SQjz-164" source="4bEdVWZg1Sl4BrF8SQjz-169" target="4bEdVWZg1Sl4BrF8SQjz-180">
          <mxGeometry relative="1" as="geometry" />
        </mxCell>
        <mxCell id="4bEdVWZg1Sl4BrF8SQjz-185" style="edgeStyle=orthogonalEdgeStyle;rounded=0;orthogonalLoop=1;jettySize=auto;html=1;exitX=1;exitY=0.75;exitDx=0;exitDy=0;entryX=0;entryY=0.5;entryDx=0;entryDy=0;" edge="1" parent="4bEdVWZg1Sl4BrF8SQjz-164" source="4bEdVWZg1Sl4BrF8SQjz-180" target="4bEdVWZg1Sl4BrF8SQjz-279">
          <mxGeometry relative="1" as="geometry">
            <mxPoint x="250" y="258.25" as="targetPoint" />
          </mxGeometry>
        </mxCell>
        <mxCell id="4bEdVWZg1Sl4BrF8SQjz-186" style="edgeStyle=orthogonalEdgeStyle;rounded=0;orthogonalLoop=1;jettySize=auto;html=1;exitX=1;exitY=0.25;exitDx=0;exitDy=0;entryX=0;entryY=0.5;entryDx=0;entryDy=0;" edge="1" parent="4bEdVWZg1Sl4BrF8SQjz-164" source="4bEdVWZg1Sl4BrF8SQjz-180" target="4bEdVWZg1Sl4BrF8SQjz-171">
          <mxGeometry relative="1" as="geometry" />
        </mxCell>
        <mxCell id="4bEdVWZg1Sl4BrF8SQjz-187" style="edgeStyle=orthogonalEdgeStyle;rounded=0;orthogonalLoop=1;jettySize=auto;html=1;entryX=0;entryY=0.75;entryDx=0;entryDy=0;" edge="1" parent="4bEdVWZg1Sl4BrF8SQjz-164" target="4bEdVWZg1Sl4BrF8SQjz-181">
          <mxGeometry relative="1" as="geometry">
            <mxPoint x="370" y="258.5" as="targetPoint" />
            <Array as="points">
              <mxPoint x="340" y="259" />
              <mxPoint x="340" y="418" />
            </Array>
            <mxPoint x="320" y="258.3142857142859" as="sourcePoint" />
          </mxGeometry>
        </mxCell>
        <mxCell id="4bEdVWZg1Sl4BrF8SQjz-188" style="edgeStyle=orthogonalEdgeStyle;rounded=0;orthogonalLoop=1;jettySize=auto;html=1;exitX=1;exitY=0.5;exitDx=0;exitDy=0;entryX=-0.005;entryY=0.3;entryDx=0;entryDy=0;entryPerimeter=0;" edge="1" parent="4bEdVWZg1Sl4BrF8SQjz-164" source="4bEdVWZg1Sl4BrF8SQjz-171" target="4bEdVWZg1Sl4BrF8SQjz-181">
          <mxGeometry relative="1" as="geometry">
            <mxPoint x="370" y="95" as="targetPoint" />
            <Array as="points">
              <mxPoint x="340" y="90" />
              <mxPoint x="340" y="395" />
            </Array>
          </mxGeometry>
        </mxCell>
        <mxCell id="4bEdVWZg1Sl4BrF8SQjz-193" style="edgeStyle=orthogonalEdgeStyle;rounded=0;orthogonalLoop=1;jettySize=auto;html=1;exitX=1;exitY=0.25;exitDx=0;exitDy=0;entryX=0;entryY=0.5;entryDx=0;entryDy=0;" edge="1" parent="4bEdVWZg1Sl4BrF8SQjz-164" source="4bEdVWZg1Sl4BrF8SQjz-197" target="4bEdVWZg1Sl4BrF8SQjz-166">
          <mxGeometry relative="1" as="geometry">
            <mxPoint x="650" y="392.875" as="sourcePoint" />
          </mxGeometry>
        </mxCell>
        <mxCell id="4bEdVWZg1Sl4BrF8SQjz-194" style="edgeStyle=orthogonalEdgeStyle;rounded=0;orthogonalLoop=1;jettySize=auto;html=1;exitX=1;exitY=0.75;exitDx=0;exitDy=0;entryX=0;entryY=0.5;entryDx=0;entryDy=0;" edge="1" parent="4bEdVWZg1Sl4BrF8SQjz-164" source="4bEdVWZg1Sl4BrF8SQjz-197" target="4bEdVWZg1Sl4BrF8SQjz-174">
          <mxGeometry relative="1" as="geometry">
            <mxPoint x="650" y="417.62500000000045" as="sourcePoint" />
          </mxGeometry>
        </mxCell>
        <mxCell id="4bEdVWZg1Sl4BrF8SQjz-236" style="edgeStyle=orthogonalEdgeStyle;rounded=0;orthogonalLoop=1;jettySize=auto;html=1;exitX=0.25;exitY=1;exitDx=0;exitDy=0;entryX=0;entryY=0.5;entryDx=0;entryDy=0;" edge="1" parent="4bEdVWZg1Sl4BrF8SQjz-164" source="4bEdVWZg1Sl4BrF8SQjz-197" target="4bEdVWZg1Sl4BrF8SQjz-228">
          <mxGeometry relative="1" as="geometry" />
        </mxCell>
        <mxCell id="4bEdVWZg1Sl4BrF8SQjz-179" value="Suscripciones" style="swimlane;html=1;startSize=20;horizontal=0;" vertex="1" parent="4bEdVWZg1Sl4BrF8SQjz-164">
          <mxGeometry y="320" width="760" height="150" as="geometry" />
        </mxCell>
        <mxCell id="4bEdVWZg1Sl4BrF8SQjz-197" value="&lt;font style=&quot;font-size: 6px&quot;&gt;1.- validar tiempo previo permitido para cancelar.&lt;br&gt;2.- Otras reglas por definir&lt;br&gt;&lt;/font&gt;" style="rounded=1;whiteSpace=wrap;html=1;shadow=0;labelBackgroundColor=none;strokeWidth=1;fontFamily=Verdana;fontSize=8;align=center;" vertex="1" parent="4bEdVWZg1Sl4BrF8SQjz-179">
          <mxGeometry x="460" y="53.5" width="70" height="63.5" as="geometry" />
        </mxCell>
        <mxCell id="4bEdVWZg1Sl4BrF8SQjz-180" value="&lt;font style=&quot;font-size: 6px&quot;&gt;Servicio GET /subscripcion&lt;br&gt;params {client_id: number}&lt;br&gt;header: Bearer&lt;br&gt;&lt;/font&gt;" style="rounded=1;whiteSpace=wrap;html=1;shadow=0;labelBackgroundColor=none;strokeWidth=1;fontFamily=Verdana;fontSize=8;align=center;" vertex="1" parent="4bEdVWZg1Sl4BrF8SQjz-179">
          <mxGeometry x="140" y="60.5" width="70" height="49.5" as="geometry" />
        </mxCell>
        <mxCell id="4bEdVWZg1Sl4BrF8SQjz-238" style="edgeStyle=orthogonalEdgeStyle;rounded=0;orthogonalLoop=1;jettySize=auto;html=1;entryX=0;entryY=0.5;entryDx=0;entryDy=0;" edge="1" parent="4bEdVWZg1Sl4BrF8SQjz-179" source="4bEdVWZg1Sl4BrF8SQjz-181" target="4bEdVWZg1Sl4BrF8SQjz-197">
          <mxGeometry relative="1" as="geometry" />
        </mxCell>
        <mxCell id="4bEdVWZg1Sl4BrF8SQjz-181" value="&lt;font style=&quot;font-size: 6px&quot;&gt;Servicio GET /off/:id&lt;br&gt;params subscription_id&lt;br&gt;header: Bearer&lt;br&gt;&lt;/font&gt;" style="rounded=1;whiteSpace=wrap;html=1;shadow=0;labelBackgroundColor=none;strokeWidth=1;fontFamily=Verdana;fontSize=8;align=center;" vertex="1" parent="4bEdVWZg1Sl4BrF8SQjz-179">
          <mxGeometry x="360" y="60.5" width="70" height="49.5" as="geometry" />
        </mxCell>
        <mxCell id="4bEdVWZg1Sl4BrF8SQjz-224" value="OpenPay" style="swimlane;html=1;startSize=20;horizontal=0;" vertex="1" parent="4bEdVWZg1Sl4BrF8SQjz-164">
          <mxGeometry y="470" width="760" height="150" as="geometry" />
        </mxCell>
        <mxCell id="4bEdVWZg1Sl4BrF8SQjz-228" value="&lt;font style=&quot;font-size: 6px&quot;&gt;Cancelar pagos suscripcion&lt;br&gt;&lt;/font&gt;" style="rounded=1;whiteSpace=wrap;html=1;shadow=0;labelBackgroundColor=none;strokeWidth=1;fontFamily=Verdana;fontSize=8;align=center;" vertex="1" parent="4bEdVWZg1Sl4BrF8SQjz-224">
          <mxGeometry x="460" y="60" width="70" height="49.5" as="geometry" />
        </mxCell>
        <mxCell id="4bEdVWZg1Sl4BrF8SQjz-239" style="edgeStyle=orthogonalEdgeStyle;rounded=0;orthogonalLoop=1;jettySize=auto;html=1;entryX=0.75;entryY=1;entryDx=0;entryDy=0;exitX=1;exitY=0.5;exitDx=0;exitDy=0;" edge="1" parent="4bEdVWZg1Sl4BrF8SQjz-164" source="4bEdVWZg1Sl4BrF8SQjz-228" target="4bEdVWZg1Sl4BrF8SQjz-197">
          <mxGeometry relative="1" as="geometry" />
        </mxCell>
        <mxCell id="4bEdVWZg1Sl4BrF8SQjz-229" value="OpenPay" style="swimlane;html=1;startSize=20;horizontal=0;" vertex="1" parent="1">
          <mxGeometry x="40" y="540" width="880" height="150" as="geometry" />
        </mxCell>
        <mxCell id="4bEdVWZg1Sl4BrF8SQjz-233" value="&lt;font style=&quot;font-size: 6px&quot;&gt;Crear&amp;nbsp;Suscripcion de pagos&lt;br&gt;&lt;/font&gt;" style="rounded=1;whiteSpace=wrap;html=1;shadow=0;labelBackgroundColor=none;strokeWidth=1;fontFamily=Verdana;fontSize=8;align=center;" vertex="1" parent="4bEdVWZg1Sl4BrF8SQjz-229">
          <mxGeometry x="590" y="60.5" width="70" height="49.5" as="geometry" />
        </mxCell>
        <mxCell id="4bEdVWZg1Sl4BrF8SQjz-244" style="edgeStyle=orthogonalEdgeStyle;rounded=0;orthogonalLoop=1;jettySize=auto;html=1;exitX=0.25;exitY=1;exitDx=0;exitDy=0;entryX=0.25;entryY=0;entryDx=0;entryDy=0;" edge="1" parent="1" source="4bEdVWZg1Sl4BrF8SQjz-43" target="4bEdVWZg1Sl4BrF8SQjz-233">
          <mxGeometry relative="1" as="geometry" />
        </mxCell>
        <mxCell id="4bEdVWZg1Sl4BrF8SQjz-245" style="edgeStyle=orthogonalEdgeStyle;rounded=0;orthogonalLoop=1;jettySize=auto;html=1;exitX=0.75;exitY=0;exitDx=0;exitDy=0;entryX=0.75;entryY=1;entryDx=0;entryDy=0;" edge="1" parent="1" source="4bEdVWZg1Sl4BrF8SQjz-233" target="4bEdVWZg1Sl4BrF8SQjz-43">
          <mxGeometry relative="1" as="geometry" />
        </mxCell>
      </root>
    </mxGraphModel>
  </diagram>
</mxfile>
